Alanis Morissette @ Good Morning America

Format                           : MPEG-TS
File size                        : 2.52 GiB
Duration                         : 5mn 10s
Overall bit rate mode            : Variable
Overall bit rate                 : 69.7 Mbps
Maximum Overall bit rate         : 35.5 Mbps

Video
ID                               : 4113 (0x1011)
Menu ID                          : 1 (0x1)
Format                           : AVC
Format/Info                      : Advanced Video Codec
Format profile                   : High@L4.1
Format settings, CABAC           : Yes
Format settings, ReFrames        : 4 frames
Format settings, GOP             : M=3, N=63
Codec ID                         : 27
Duration                         : 5mn 8s
Bit rate mode                    : Variable
Bit rate                         : 65.6 Mbps
Maximum bit rate                 : 40.0 Mbps
Width                            : 1 280 pixels
Height                           : 720 pixels
Display aspect ratio             : 16:9
Frame rate                       : 59.940 fps
Color space                      : YUV
Chroma subsampling               : 4:2:0
Bit depth                        : 8 bits
Scan type                        : Progressive
Bits/(Pixel*Frame)               : 1.188
Stream size                      : 2.36 GiB (94%)
Color primaries                  : BT.709-5, BT.1361, IEC 61966-2-4, SMPTE RP177
Transfer characteristics         : BT.709-5, BT.1361
Matrix coefficients              : BT.709-5, BT.1361, IEC 61966-2-4 709, SMPTE RP177

Audio
ID                               : 4352 (0x1100)
Menu ID                          : 1 (0x1)
Format                           : AC-3
Format/Info                      : Audio Coding 3
Mode extension                   : CM (complete main)
Codec ID                         : 129
Duration                         : 5mn 10s
Bit rate mode                    : Constant
Bit rate                         : 640 Kbps
Channel(s)                       : 6 channels
Channel positions                : Front: L C R, Side: L R, LFE
Sampling rate                    : 48.0 KHz
Bit depth                        : 16 bits
Compression mode                 : Lossy
Delay relative to video          : 7ms
Stream size                      : 23.7 MiB (1%)

Text #1
ID                               : 4113 (0x1011)-608-1
Menu ID                          : 1 (0x1)
Format                           : EIA-608
Muxing mode                      : SCTE 128 / DTVCC Transport
Muxing mode, more info           : Muxed in Video #1
Duration                         : 5mn 8s
Bit rate mode                    : Constant
Stream size                      : 0.00 Byte (0%)

Text #2
ID                               : 4113 (0x1011)-1
Menu ID                          : 1 (0x1)
Format                           : EIA-708
Muxing mode                      : SCTE 128 / DTVCC Transport
Muxing mode, more info           : Muxed in Video #1
Duration                         : 5mn 8s
Bit rate mode                    : Constant
Stream size                      : 0.00 Byte (0%)